<svg width="136" height="125" viewBox="0 0 136 125" fill="none" xmlns="http://www.w3.org/2000/svg">
<rect width="136" height="125" fill="white"/>
<path d="M88.4963 97.5264L61.8321 82.1318C60.2851 81.2386 59.3321 79.588 59.3321 77.8017V25.6603C59.3321 21.8112 63.4988 19.4056 66.8321 21.3301L93.4963 36.7247C95.0434 37.6179 95.9963 39.2685 95.9963 41.0549V93.1963C95.9963 97.0453 91.8297 99.4509 88.4963 97.5264Z" fill="#10101A" stroke="white" stroke-width="10"/>
<path d="M70.1642 102.654L43.5 87.2593C41.953 86.3661 41 84.7155 41 82.9292V30.7878C41 26.9388 45.1667 24.5331 48.5 26.4576L75.1642 41.8522C76.7112 42.7454 77.6642 44.396 77.6642 46.1824V98.3238C77.6642 102.173 73.4976 104.578 70.1642 102.654Z" fill="#10101A" stroke="white" stroke-width="10"/>
</svg>
