<svg viewBox="0 0 96 96" xmlns="http://www.w3.org/2000/svg" xmlns:xlink="http://www.w3.org/1999/xlink" id="Icons_RawMaterials" overflow="hidden"><path d="M74.613 22.357 65.973 22.357 57.586 13.97 48 18.762 36.018 16.366 31.225 22.357 21.387 22.357 13 31.996 83 32 74.613 22.357Z"/><path d="M93 74 66.717 74C68.6501 71.6569 68.3177 68.1904 65.9747 66.2573 63.6316 64.3242 60.1651 64.6566 58.232 66.9997 56.5553 69.0319 56.5553 71.9677 58.232 74L36.743 74C38.6758 71.6567 38.3429 68.1902 35.9996 66.2574 33.6562 64.3247 30.1898 64.6575 28.257 67.0009 26.581 69.0329 26.581 71.968 28.257 74L2 74 2 78 7 78 7 81 16 81 16 78 25 78 25 81 34 81 34 78 43 78 43 81 52 81 52 78 61 78 61 81 70 81 70 78 79 78 79 81 88 81 88 78 93 78Z"/><path d="M22.263 70 24.025 70C24.2941 65.3194 28.3067 61.7432 32.9873 62.0123 37.2921 62.2599 40.7275 65.6952 40.975 70L54 70C54.2739 65.3197 58.2901 61.7475 62.9705 62.0215 67.2684 62.273 70.6975 65.7021 70.949 70L72.712 70 84.08 43 87 43 87 36 8 36 8 43 10.9 43Z"/></svg>